<svg id="Ebene_1" data-name="Ebene 1" xmlns="http://www.w3.org/2000/svg" viewBox="0 0 434.84 147.18"><defs><style>.cls-1,.cls-2{fill:#b71f38;}.cls-1,.cls-4{fill-rule:evenodd;}.cls-3{fill:#b61f38;}.cls-4{fill:#a5b9c4;}</style></defs><title>LogoStadtWürzburgTester</title><polygon class="cls-1" points="0.22 144.3 1.89 144.3 0.87 147.18 0.22 147.18 0.22 144.3"/><rect class="cls-2" x="0.22" y="82.89" width="109.23" height="0.95"/><rect class="cls-2" x="0.22" y="85.95" width="109.23" height="1.02"/><rect class="cls-2" x="0.22" y="89.23" width="109.23" height="1.1"/><polygon class="cls-1" points="48.11 92.78 109.44 92.78 109.44 93.97 49.03 93.97 48.11 92.78"/><polygon class="cls-1" points="0.22 92.78 47.95 92.78 47.01 93.97 0.22 93.97 0.22 92.78"/><polygon class="cls-1" points="51.09 96.62 109.44 96.62 109.44 97.9 52.09 97.9 51.09 96.62"/><path class="cls-1" d="M82.56,156h18.84l-1,1.29H83.14A1.8,1.8,0,0,0,82.56,156Z" transform="translate(-56.49 -59.4)"/><path class="cls-1" d="M56.71,156H80.43a1.79,1.79,0,0,0-.71,1.29h-23Z" transform="translate(-56.49 -59.4)"/><polygon class="cls-1" points="87.29 100.79 109.44 100.79 109.44 102.19 87.54 102.19 87.29 100.79"/><polygon class="cls-1" points="53.89 100.79 87.2 100.79 86.9 102.19 53.88 102.19 53.89 100.79"/><path class="cls-1" d="M82.58,160.18h16.1l0,1.4H83.18a3.92,3.92,0,0,0-.59-.36Z" transform="translate(-56.49 -59.4)"/><path class="cls-1" d="M56.71,160.18H80.22v1a2.4,2.4,0,0,0-.75.45H56.71Z" transform="translate(-56.49 -59.4)"/><path class="cls-1" d="M145,164.73h20.9v1.53H146a2,2,0,0,0-1.33-.95l.61-.45Z" transform="translate(-56.49 -59.4)"/><path class="cls-1" d="M124.92,164.73h17l.42.46a2.86,2.86,0,0,0-1.54,1.07H126.2Z" transform="translate(-56.49 -59.4)"/><polygon class="cls-1" points="53.86 105.33 67.64 105.33 66.2 106.86 53.85 106.86 53.86 105.33"/><path class="cls-1" d="M84.37,164.73H98.56v.43l-2.35,1.1H86.08l-1.94-.87A3.31,3.31,0,0,0,84.37,164.73Z" transform="translate(-56.49 -59.4)"/><path class="cls-1" d="M56.71,164.73H78.36a2.77,2.77,0,0,0,.51.79l-1.92.74H56.71Z" transform="translate(-56.49 -59.4)"/><polygon class="cls-1" points="89.54 110.3 109.44 110.3 109.44 111.98 90.07 111.98 90.07 111.76 90.8 111.42 89.54 110.3"/><polygon class="cls-1" points="71.49 110.3 84.19 110.3 83.23 111.18 83.65 111.56 83.63 111.98 71.47 111.98 71.49 110.3"/><path class="cls-1" d="M117.75,169.69h3c0,.62,0,1.2,0,1.2Z" transform="translate(-56.49 -59.4)"/><polygon class="cls-1" points="29.82 110.3 32.37 110.3 29.82 111.5 29.82 110.3"/><polygon class="cls-1" points="0.22 110.3 20.24 110.3 20.19 111.98 0.22 111.98 0.22 110.3"/><polygon class="cls-1" points="91.81 115.76 109.44 115.76 109.44 117.61 91.79 117.61 91.81 115.76"/><polygon class="cls-1" points="75.78 115.76 81.28 115.76 81.26 117.61 80.46 117.61 75.78 115.76"/><polygon class="cls-1" points="12.08 115.76 20.09 115.76 20.07 116.78 18.3 117.61 13.47 117.61 12.08 115.76"/><polygon class="cls-1" points="0.22 115.76 11.62 115.76 10.25 117.61 0.22 117.61 0.22 115.76"/><polygon class="cls-1" points="91.75 121.78 109.44 121.78 109.44 123.83 91.73 123.83 91.75 121.78"/><polygon class="cls-1" points="0.22 121.78 9.6 121.78 9.6 122.58 9.16 123.83 0.22 123.83 0.22 121.78"/><path class="cls-1" d="M154.29,187.86h11.64v2.28h-8c-.32-.69-.53-1.15-.6-1.28C157.44,189.08,156,188.57,154.29,187.86Z" transform="translate(-56.49 -59.4)"/><polygon class="cls-1" points="0.22 128.47 7.51 128.47 6.7 130.75 0.22 130.75 0.22 128.47"/><polygon class="cls-1" points="103.84 135.93 109.44 135.93 109.44 138.48 105 138.48 103.84 135.93"/><polygon class="cls-1" points="0.22 135.93 4.86 135.93 3.96 138.48 0.22 138.48 0.22 135.93"/><path class="cls-1" d="M164.14,203.7h1.79v2.88h-.47Z" transform="translate(-56.49 -59.4)"/><path class="cls-3" d="M73.08,92.05c2.4,1.18,2.91,5.43,2.73,6.63a2.13,2.13,0,0,0,.24,4.22L76,109.44l2.54,0L78.42,96.6l.6,1.47,2.35-13.9,2.57,13.93.52-1.47.13,6.18a13.84,13.84,0,0,1,9-7.2l0-.44a1.27,1.27,0,0,0,.46-1.1l0-4.86c-2.33-2.28.88-5.28,1.94-5.56l.88-6.37.82,6.44c1.07.28,4.41,2.82,2.22,5.56l.09,4.83a1.34,1.34,0,0,0,.52,1.11l0,.41a14,14,0,0,1,8.8,7.24V89.73a.44.44,0,0,0,0-.65.9.9,0,0,1,0-1L109,86.8q.67,0,.37-1.22-.34-.2.09-.57c.25-.25.49-.22.7.08,0,0,.82,1.76.66,2.2l0,1.22q.3.83.9,0l-.12-.9q-.2-.74.18-.9.3-1.06-.14-1.38c-.66-.37-.68-1,.18-.9a1.18,1.18,0,0,0,.48-.9l-.11-.49c.17-.26.09-.48-.22-.65q-.9-.63.08-.73a.82.82,0,0,0,.48-.9l0-.81c-.69-.41-.51-.72.1-.9q.68-.33.29-.57l-.13-.56q-1.43-.28-1-1.22-.12-.77,1.08-.81,1-.18.17-1.06-.83-.65.17-1t.16-1.71q-.84-.79.18-.9a1,1,0,0,0,.58-1l.17-1.3c-.23-.36-1.53,0-1.52-.57q-.27-.55,1.28-.81.47.15.57-1.06l0-.65-.31-.33h-.7c-.05-.23.25-.34.89-.33a.43.43,0,0,0-.11-.47q-.44-.44-.22-.67a1.5,1.5,0,0,0,.06-1.38q-.7-1.52.15-2c-.39-.74-.17-1.16.4-1.35l.26,0q.86.28.34,1.38.87.43.25,2a1.51,1.51,0,0,0,.14,1.38q.23.22-.18.67a.41.41,0,0,0-.09.47c.65,0,.95.1.91.33h-.7l-.29.33,0,.65q.16,1.21.63,1.06,1.56.27,1.32.81c0,.52-1.27.21-1.49.57l.23,1.3a1,1,0,0,0,.62,1q1,.1.22.9-.62,1.5.24,1.71,1,.33.22,1-.81.88.23,1.06,1.2,0,1.12.81.44.94-1,1.22l-.1.56q-.38.24.31.57c.61.19.81.49.14.9l0,.81a.87.87,0,0,0,.52.9q1,.11.12.73c-.3.17-.36.39-.18.65l-.09.49a1.24,1.24,0,0,0,.52.9c.85-.15.87.53.22.9q-.42.32-.06,1.38.38.16.22.9l-.08.89q.64.83.9,0l0-1.22c-.19-.44.54-2.2.54-2.2a.4.4,0,0,1,.7-.08c.3.25.34.44.12.57-.16.8,0,1.21.43,1.22l-.17,1.3a.9.9,0,0,1,0,1,.44.44,0,0,0,0,.65l0,13.11h4.92l.08-4.3-1-.87,0-4.82-1.46-.78,2.56-1,2.34-3.54,1.84-12.79-1.41-.46,1.89-1.17,1.33-8.92,1.43,8.92,1.95,1.13-1.46.35L136.36,85l1.21-4.89L138.66,86,140,87l-1.07.21L139,91.1l2.17,1.09-1.44.88.12,4.58-1.17,1,.18,10.73,4.62,0V89l1.06,1.67,2.84-15.72,3.11,15.69,1-1.67L151.42,103l3.48-1.85,3.17,1.77L158,89.19l1.06,1.67,2.66-15.72L165,90.89l1-1.67,0,51.44H56.74l-.25-44,.6,1.47L59.74,84.5l2.57,13.55.6-1.38L63,109.49h2.65l0-6.57a2.13,2.13,0,0,0,.09-4.24c-.26-.82.36-5.47,2.54-6.62,1.41-3,.81-4.34,1.18-8.64.16-.55.51-.62.87-.93l.28-5.79.33,5.8c.37.31.73.38.92.93C72.11,85.92,71.55,89.74,73.08,92.05Z" transform="translate(-56.49 -59.4)"/><path class="cls-4" d="M212.4,130.54c0-11.79-17.88-10.34-17.88-18.46,0-4.11,4.07-5.56,7.3-5.56a15.41,15.41,0,0,1,7.41,2.28l.45-.17a29.64,29.64,0,0,1,1.5-2.9l-.06-.51a19.94,19.94,0,0,0-9.92-2.76c-6,0-11.53,3.21-11.53,10.23,0,11.23,17.83,10.4,17.83,18.35,0,4.39-4,6.28-7.58,6.28s-6-1.28-9-3.23l-.45.33a33.31,33.31,0,0,1-1.28,3.45l.11.44a20.1,20.1,0,0,0,10.92,3.17C206.49,141.5,212.4,137.88,212.4,130.54ZM245,103.4l-.39-.5c-9.08.11-18.16,0-27.24-.11l-.45.39-.17,3.45.33.44,11.31-.17c.11,6.52.22,13.09.22,19.61v4.9a61.14,61.14,0,0,1-.39,9l.45.61,4.23-.11.56-.5c-.39-9.36-.22-18.83-.22-28.19,0-1.78.06-5.29.06-5.29h3c2.45,0,5.12.06,7.58.11l.56-.44Zm33.5,37.21-.4-1.21-4.28-12.71c-5.28-15.66-5.84-17.41-6.43-19.15l-1.48-4.3-.5-.45-5.85.11-.5.5-8.47,22.67c-1.78,4.79-3.56,9.58-5.4,14.48l.33.5,4.29-.11.5-.39,3.84-11h4.23c3.34,0,7.69.06,11,.11l3.45,11.08.33.33,4.9-.11Zm-10.36-15.15c-1.56.06-3.73.11-5.29.11h-2.73c-1.28,0-4.51-.06-4.51-.06l6.63-19Zm47.75-4.26c0-7.34-3.29-14.18-9.86-17.07a20,20,0,0,0-8.47-1.45l-10.8.22-.45.56c.05,3,.17,6,.22,9,.05,5.5.17,10.84.17,16.57a78.21,78.21,0,0,1-.45,11.41l.45.61,6.29.06c6.18.06,13-.28,17.77-5.18C314.22,132.26,315.84,126.26,315.84,121.2Zm-5.07-.33c0,11.9-5.29,16.35-16.65,16.35h-2.79c-.22-8.29-.11-16.68-.11-25,0-1.83.05-5.45.05-5.45a46.63,46.63,0,0,1,5.57-.33c2.79,0,5.4.22,7.86,1.67C309.21,110.8,310.77,115.64,310.77,120.87Zm37.41-17.46-.39-.5c-9.08.11-18.16,0-27.24-.11l-.44.39-.17,3.45.33.44,11.31-.17c.11,6.52.22,13.09.22,19.61v4.9a60.94,60.94,0,0,1-.39,9l.45.61,4.23-.11.56-.5c-.39-9.36-.22-18.83-.22-28.19,0-1.78.05-5.29.05-5.29h3c2.45,0,5.12.06,7.58.11l.56-.44Z" transform="translate(-56.49 -59.4)"/><path class="cls-4" d="M237.74,160.44l-.56-.5-3.84.11-.78.5s-5.29,22.23-7.91,33.37c-7.85-33.48-.17,0-8-33.48l-.56-.5-6,.11-.78.5c-8.24,33.37-.06,0-8.3,33.37,0,0-.06,0-7.63-33.48l-.56-.5-4.79.39-.28.61c3.79,12.2,6.52,24.62,10,36.87l.45.39,5.29-.11.5-.5c8.52-32.92.05,0,8.58-32.92,9,33.14-.06,0,9,33.14l.5.39,5.18-.11.56-.5,6-22.5C235.18,169.63,235.57,167.79,237.74,160.44Zm35.24.17-.45-.67-3.84.11-.45.61c.33,6,.33,12.09.33,18.1,0,4.23.39,8.52-1,11.53-1.17,2.51-3.56,4.18-7.91,4.18-5.91,0-8.13-4.23-8.19-8.24s-.06-10.14-.06-10.14c-.06-5.18.11-10.47.39-15.65l-.5-.56-4.23.33-.39.61c.17,8.41-.06,16.82-.06,25.23,0,8.25,6,12.48,13.2,12.48a13.72,13.72,0,0,0,9.92-3.73c3.84-3.79,3.17-9.86,3.17-14.43C272.92,173.8,272.87,167.17,273,160.6Zm38.86,37c-4.51-5.35-8.3-11.14-12.31-16.88a12.37,12.37,0,0,0,4.23-1,10.44,10.44,0,0,0,5.46-9.25,10.27,10.27,0,0,0-10.64-10.53L286,160l-.45.56c.05,3,.17,6,.22,9,.05,5.51.17,10.86.17,16.6a78.09,78.09,0,0,1-.45,11.42l.45.61,4.23-.11.56-.5c-.05-2-.17-4-.17-6V181.1l4-.11c3.73,5.46,7.63,11.47,11.2,16.88l.56.33,5.4-.11Zm-7.35-26.74c0,4.57-2.73,6-6.74,6.35-2.39.22-4.79.22-7.19.28,0-2.67-.06-5.4-.06-8.08,0-1.78.06-5.29.06-5.29,2-.17,4-.33,6-.33C301.14,163.78,304.49,165.67,304.49,170.85Zm40.36,26.62-1.28-3.12L343,194c-6.29,0-12.64.06-18.94.11,6.46-11.2,13-22.34,19.72-33.37l-.22-.56c-7.58,0-14.71-.06-22.28-.22l-.5.39-1.51,3.23.28.61c4.29-.11,8.52-.17,12.81-.17h4.23c-6.57,11.2-13.2,22.45-19.83,33.64l.28.44c9.25-.11,18.16,0,27.4.11Zm33.68-11c0-5.08-3.4-8.2-8-8.93a7.69,7.69,0,0,0,5.79-7.87,9.67,9.67,0,0,0-8.36-9.48,20.37,20.37,0,0,0-3.68-.22l-9.86.11-.44.56c.05,3,.17,6,.22,9,.06,5.53.17,10.88.17,16.63a78.55,78.55,0,0,1-.44,11.43l.44.61c2.23-.05,4.4-.05,6.52-.05,5.85,0,11.08-.33,14.54-4A11.22,11.22,0,0,0,378.53,186.43Zm-7.24-16.69a6.23,6.23,0,0,1-3.68,5.8c-2.12.78-6.35.67-8.58.73-.06-1.62-.06-3.24-.06-4.86v-7.7s3.06-.06,4.57-.06C367.39,163.61,371.29,165,371.29,169.75Zm2.17,16.8c0,7.53-7.52,7.76-12.7,7.76h-1.67c0-1.68-.05-3.35-.05-5v-9.21c2.12-.11,4.29-.22,6.41-.22C369.62,179.85,373.46,181.36,373.46,186.55Zm42-25.94-.45-.67-3.84.11-.45.61c.33,6,.33,12.09.33,18.1,0,4.23.39,8.52-1,11.53-1.17,2.51-3.56,4.18-7.91,4.18-5.9,0-8.13-4.23-8.19-8.24s-.05-10.14-.05-10.14c-.06-5.18.11-10.47.39-15.65l-.5-.56-4.23.33-.39.61c.17,8.41-.05,16.82-.05,25.23,0,8.25,6,12.48,13.2,12.48a13.72,13.72,0,0,0,9.91-3.73c3.84-3.79,3.18-9.86,3.18-14.43C415.39,173.8,415.34,167.17,415.45,160.6Zm38.86,37c-4.51-5.35-8.3-11.14-12.31-16.88a12.36,12.36,0,0,0,4.23-1,10.44,10.44,0,0,0,5.46-9.25,10.27,10.27,0,0,0-10.64-10.53l-12.59.11-.45.56c.05,3,.17,6,.22,9,.05,5.51.17,10.86.17,16.6a78.37,78.37,0,0,1-.45,11.42l.45.61,4.23-.11.56-.5c-.05-2-.17-4-.17-6V181.1l4-.11c3.73,5.46,7.63,11.47,11.2,16.88l.56.33,5.4-.11ZM447,170.85c0,4.57-2.73,6-6.74,6.35-2.39.22-4.79.22-7.19.28,0-2.67-.05-5.4-.05-8.08,0-1.78.05-5.29.05-5.29,2-.17,4-.33,6-.33C443.62,163.78,447,165.67,447,170.85Zm44.37,6.74-.5-.61c-4,.05-7.69.22-11.64,0l-.45.5-.61,3,.39.61c2.79-.05,8-.05,8-.05s.06,5.51.06,8.24v3.46a14.13,14.13,0,0,1-6.91,1.56c-9,0-13.14-6.91-13.14-15.76,0-8.36,5.4-14.65,13.42-14.65a15.28,15.28,0,0,1,9,2.51l.61-.28c.28-1.06.56-2.06.78-3.12l-.39-.78a19.32,19.32,0,0,0-10.25-2.51c-10.36,0-18.27,7.58-18.27,18.77,0,12,6.79,20,18.21,20a23.25,23.25,0,0,0,11-2.73l.28-.5C491,189.34,491.22,183.5,491.33,177.59ZM258.16,154.32a2.84,2.84,0,0,0-5.68,0,2.84,2.84,0,0,0,5.68,0Zm9.64,0a2.84,2.84,0,0,0-5.68,0,2.81,2.81,0,0,0,2.84,2.79A2.88,2.88,0,0,0,267.8,154.32Z" transform="translate(-56.49 -59.4)"/></svg>
